<?xml version="1.0" encoding="utf-8"?>
<!-- Generator: Adobe Illustrator 15.1.0, SVG Export Plug-In  -->
<!DOCTYPE svg PUBLIC "-//W3C//DTD SVG 1.1//EN" "http://www.w3.org/Graphics/SVG/1.1/DTD/svg11.dtd" [
	<!ENTITY ns_flows "http://ns.adobe.com/Flows/1.0/">
]>
<svg version="1.1"
	 xmlns="http://www.w3.org/2000/svg" xmlns:xlink="http://www.w3.org/1999/xlink" xmlns:a="http://ns.adobe.com/AdobeSVGViewerExtensions/3.0/"
	 x="0px" y="0px" preserveAspectRatio='X122Y154 meet' viewBox="-0.078 -0.876 122 154"
	 overflow="visible" enable-background="new -0.078 -0.876 122 154" xml:space="preserve">
<defs>
</defs>
<path fill-rule="evenodd" clip-rule="evenodd" fill="#FFFFFF" d="M14.828,139.2l-1.231-7.764l-1.231-8.195l-1.232,8.195L9.696,139.2
	H14.828z M9.08,144.16l-1.642,8.626H1.28l7.595-35.799h7.39l6.774,35.799h-5.953l-1.643-8.626H9.08z"/>
<path fill-rule="evenodd" clip-rule="evenodd" fill="#FFFFFF" d="M37.618,136.779L37.618,136.779v-1.475l-0.422-1.264l-0.633-1.054
	l-0.633-0.843l-0.633-0.21h-0.422l-0.844,0.21l-0.844,0.422l-0.633,0.843l-0.422,0.842l-0.422,1.264l-0.211,1.265l-0.211,3.159
	l0.211,1.685l0.211,1.475l0.211,1.475l0.422,1.053l0.422,0.843l0.633,0.632l0.633,0.421l0.633,0.211l0.844-0.211l0.633-0.421
	l0.633-0.843l0.633-1.264l0.211-0.632v-0.843V136.779z M43.947,116.348v28.856l0.211,7.161h-5.485l-0.422-2.949l-0.844,1.475
	l-1.266,1.054l-1.477,0.632l-0.844,0.21h-0.844h-1.055l-0.844-0.21l-0.844-0.211l-0.844-0.421l-1.266-1.264l-1.055-1.686
	l-0.844-1.896l-0.633-2.106l-0.422-2.527l-0.211-2.738l0.211-3.159l0.422-2.527l0.844-2.317l1.055-1.896l1.266-1.475l1.266-0.843
	l1.477-0.632l1.688-0.21l1.477,0.21l1.266,0.422l0.844,0.842l0.633,1.054h0.211v-12.849H43.947z"/>
<path fill-rule="evenodd" clip-rule="evenodd" fill="#FFFFFF" d="M56.739,147.925L56.739,147.925l0.816-0.211l0.612-0.423
	l0.612-0.846l0.204-1.269l0.612-2.536v-2.959v-2.748l-0.204-1.479l-0.408-1.269l-0.408-1.057l-0.408-1.057l-0.612-0.423l-1.02-0.212
	l-0.815,0.212l-0.612,0.423l-0.612,1.057l-0.408,1.057l-0.204,1.269l-0.204,1.479l-0.204,2.748l0.204,3.17l0.204,1.269l0.204,1.269
	l0.408,1.057l0.612,0.846l0.612,0.423L56.739,147.925z M56.535,152.786L56.535,152.786l-2.039-0.211l-1.632-0.634l-1.631-1.058
	l-1.428-1.479l-1.02-1.902l-0.816-2.113l-0.408-2.748l-0.204-2.959l0.204-3.171l0.612-2.748l0.815-2.325l1.224-1.69l1.428-1.479
	l1.632-1.058l1.631-0.423l1.835-0.211l2.04,0.211l1.835,0.635l1.427,1.057l1.428,1.479l1.02,1.902l0.816,2.325l0.408,2.536
	l0.203,2.96l-0.203,1.902l-0.205,1.69l-0.203,1.479l-0.408,1.269l-0.408,1.269l-0.611,1.057l-0.611,1.057l-0.612,0.846l-1.428,1.269
	l-1.631,0.846l-1.428,0.422h-1.428H56.535z"/>
<path fill-rule="evenodd" clip-rule="evenodd" fill="#FFFFFF" d="M76.719,143.309L76.719,143.309v1.053l0.203,0.632l0.408,1.264
	l0.816,0.843l0.611,0.421l0.611,0.211l0.816-0.211l0.816-0.421l0.407-0.632l0.612-1.053l0.203-1.054l0.408-1.475v-3.37v-2.948
	l-0.408-1.475l-0.203-1.053l-0.612-0.843l-0.612-0.632l-0.611-0.422l-0.816-0.21l-0.815,0.21l-0.815,0.633l-0.408,0.842
	l-0.408,1.054l-0.203,1.685V143.309z M70.6,116.348h6.119v13.27l1.02-1.264l1.224-1.053l1.224-0.422l1.631-0.21h1.021l0.612,0.21
	l1.427,0.632l1.224,1.265l1.02,1.474l0.816,1.686l0.408,2.316l0.407,2.317l0.204,2.527l-0.204,3.159l-0.407,2.738l-0.816,2.317
	l-1.02,2.105l-1.02,1.475l-1.428,1.054l-1.428,0.632l-1.631,0.21l-1.633-0.21l-1.223-0.422l-1.02-1.264l-1.021-1.475h-0.204
	l-0.408,2.949h-5.098l0.203-7.161V116.348z"/>
<path fill-rule="evenodd" clip-rule="evenodd" fill="#FFFFFF" d="M105.449,137.479L105.449,137.479l-0.211-2.516l-0.211-1.049
	l-0.422-0.839l-0.422-0.839l-0.422-0.419l-0.633-0.42h-0.844h-0.632l-0.844,0.42l-0.422,0.629l-0.633,0.839l-0.422,2.097
	l-0.422,2.097H105.449z M98.911,141.883L98.911,141.883l0.211,1.468l0.422,1.259l0.422,1.048l0.633,0.839l0.844,0.629l0.843,0.42
	l1.055,0.209l1.266,0.21l1.266-0.21l1.266-0.209l2.109-0.63l0.843,4.613l-1.265,0.42l-1.688,0.419l-1.898,0.21l-1.898,0.209
	l-2.319-0.209l-2.109-0.629l-1.897-1.049l-1.477-1.468l-1.266-1.887l-0.844-2.098l-0.422-2.516l-0.211-2.727l0.211-2.936
	l0.633-2.726l0.844-2.307l1.266-1.887l1.477-1.678l1.687-1.048l1.898-0.63l1.897-0.419l1.898,0.21l1.898,0.629l1.266,1.048
	l1.266,1.468l1.054,1.678l0.633,1.888l0.422,2.306l0.211,2.727l-0.211,2.097v1.258H98.911z"/>
<polygon fill-rule="evenodd" clip-rule="evenodd" fill="#FFFFFF" points="70.396,0 111.354,0 111.354,98.448 "/>
<polygon fill-rule="evenodd" clip-rule="evenodd" fill="#FFFFFF" points="40.958,0 0,0 0,98.448 "/>
<polygon fill-rule="evenodd" clip-rule="evenodd" fill="#FFFFFF" points="55.803,35.799 81.916,98.448 64.72,98.448 56.865,78.426 
	37.758,78.426 "/>
<path fill-rule="evenodd" clip-rule="evenodd" fill="#FFFFFF" d="M117.113,3.622h0.428l0.64-0.213l0.214-0.213l0.213-0.213V2.77
	l-0.213-0.426h-0.428l-0.426-0.213l-0.428,0.213V3.622z M117.113,5.966h-0.853V1.704h1.28h0.854l0.64,0.214l0.213,0.426v0.64v0.213
	l-0.213,0.426l-0.427,0.213l0.427,0.427l0.213,0.639l0.214,1.065h-0.854L118.395,4.9l-0.214-0.426l-0.64-0.213h-0.428V5.966z
	 M117.754,0.639L117.754,0.639h-0.641l-0.426,0.214l-1.066,0.639l-0.641,1.065l-0.213,1.278l0.213,1.279l0.641,0.852l1.066,0.853
	h0.426l0.641,0.213h0.641l0.64-0.213l0.853-0.853l0.641-0.852l0.213-1.279l-0.213-1.278l-0.641-1.065l-0.853-0.639l-0.64-0.214
	H117.754z M117.754,0L117.754,0h0.854l0.64,0.213l0.64,0.426l0.641,0.427l0.427,0.639l0.427,0.64l0.213,0.64v0.852v0.64
	l-0.213,0.853l-0.427,0.639l-0.427,0.64l-0.641,0.426l-0.64,0.214l-0.64,0.213l-0.854,0.213L116.9,7.458l-0.64-0.213l-0.64-0.214
	l-0.641-0.426l-0.427-0.64l-0.427-0.639l-0.213-0.853v-0.64V2.983l0.213-0.64l0.427-0.64l0.427-0.639l0.641-0.427l0.64-0.426
	L116.9,0H117.754z"/>
</svg>
