<?xml version="1.0" encoding="utf-8"?>
<svg version="1.1"
	 xmlns="http://www.w3.org/2000/svg" xmlns:xlink="http://www.w3.org/1999/xlink"
	 x="0px" y="0px" width="377px" height="467px" viewBox="0 0 377 467" overflow="visible" enable-background="new 0 0 377 467"
	 xml:space="preserve">
<path id="path626_5_" fill="#cecece" d="
	M197.264,359.763c-7.002-2.842-12.111-2.602-13.295-0.239c-4.029,8.212-8.813,11.505-10.209,13.471
	c-2.344,3.545-4.734,5.339-6.31,5.497c-2.684,0-8.023,8.42-12.97,16.548c-3.682,5.912-1.341,16.018,1.789,16.546
	c1.391-0.577,2.155-1.816,7.603,0.894c1.337,1.763,2.155,3.316,3.578,5.814c-0.159,2.183-1.053,4.473-6.316,4.893
	c-5.262,0.104-10.263,0.234-12.468-0.42c-5.366-2.236-9.838-0.895-12.075,0c-17.099-0.213-28.622,0.895-32.199,0
	c-4.369-1.368-2.264-4.26,4.079-6.522c2.074-0.525,6.229-1.315,11.939-1.79c4.919-0.791,7.363-3.495,8.47-7.155
	c3.479-10.142,13.471-14.971,16.601-19.388c2.34-2.995,6.609-8.001,7.761-12.283c3.84-3.649,3.311-10.137,0.343-14.577
	c-4.232-5.705-6.32-15.078-10.787-19.808L197.264,359.763z"/>
<path id="path626_4_" fill="#cecece" d="
	M251.526,396.827c-0.365-1.915-3.221-1.645-4.025-0.895c-3.649,10.553-3.474,14.708-0.447,17.441
	c2.711,5.737-1.712,10.444-7.602,10.286c-22.652-1.581-38.588,0.736-40.634,0.186c-1.098-1.342-12.269-0.023-10.666-5.209
	c1.129-2.182,5.235-6.158,8.366-9.288c1.233-1.392,3.817-1.341,6.708-1.341c4.473,0,5.285,0.157,9.152-0.316
	c1.652-0.633,2.416-1.689,7.815-2.575c2.235-6.261,12.205-12.893,13.995-15.128c2.579-2.078,1.766-3.474,3.261-5.71
	c0.705-2.71,0.447-4.527-1.392-6.076L251.526,396.827z"/>
</svg>
